{
	"asset":{
		"generator":"Khronos glTF Blender I/O v3.5.30",
		"version":"2.0"
	},
	"extensionsUsed":[
		"KHR_materials_clearcoat",
		"KHR_materials_specular",
		"KHR_materials_ior"
	],
	"scene":0,
	"scenes":[
		{
			"name":"Scene",
			"nodes":[
				0
			]
		}
	],
	"nodes":[
		{
			"mesh":0,
			"name":"cloud3",
			"translation":[
				-4.019439220428467,
				0.13319523632526398,
				0.42020636796951294
			]
		}
	],
	"materials":[
		{
			"doubleSided":true,
			"extensions":{
				"KHR_materials_clearcoat":{
					"clearcoatFactor":0.7250000238418579,
					"clearcoatRoughnessFactor":0.39666667580604553
				},
				"KHR_materials_specular":{
					"specularColorFactor":[
						2.371357614441398,
						2.371357614441398,
						2.371357614441398
					]
				},
				"KHR_materials_ior":{
					"ior":1.4500000476837158
				}
			},
			"name":"white",
			"pbrMetallicRoughness":{
				"metallicFactor":0,
				"roughnessFactor":0.36666667461395264
			}
		}
	],
	"meshes":[
		{
			"name":"Mball.026",
			"primitives":[
				{
					"attributes":{
						"POSITION":0,
						"NORMAL":1
					},
					"indices":2,
					"material":0
				}
			]
		}
	],
	"accessors":[
		{
			"bufferView":0,
			"componentType":5126,
			"count":4138,
			"max":[
				1.2968475818634033,
				1.0356277227401733,
				0.9376471638679504
			],
			"min":[
				-1.3377467393875122,
				-0.8477566242218018,
				-1.0469539165496826
			],
			"type":"VEC3"
		},
		{
			"bufferView":1,
			"componentType":5126,
			"count":4138,
			"type":"VEC3"
		},
		{
			"bufferView":2,
			"componentType":5123,
			"count":24816,
			"type":"SCALAR"
		}
	],
	"bufferViews":[
		{
			"buffer":0,
			"byteLength":49656,
			"byteOffset":0,
			"target":34962
		},
		{
			"buffer":0,
			"byteLength":49656,
			"byteOffset":49656,
			"target":34962
		},
		{
			"buffer":0,
			"byteLength":49632,
			"byteOffset":99312,
			"target":34963
		}
	],
	"buffers":[
		{
			"byteLength":148944,
			"uri":"data:application/octet-stream;base64,"
		}
	]
}
