{
	"asset":{
		"generator":"Khronos glTF Blender I/O v3.5.30",
		"version":"2.0"
	},
	"extensionsUsed":[
		"KHR_materials_clearcoat",
		"KHR_materials_specular",
		"KHR_materials_ior"
	],
	"scene":0,
	"scenes":[
		{
			"name":"Scene",
			"nodes":[
				0
			]
		}
	],
	"nodes":[
		{
			"mesh":0,
			"name":"cloud2",
			"translation":[
				-9.706244468688965,
				0.23260089755058289,
				0.13342168927192688
			]
		}
	],
	"materials":[
		{
			"doubleSided":true,
			"extensions":{
				"KHR_materials_clearcoat":{
					"clearcoatFactor":0.7250000238418579,
					"clearcoatRoughnessFactor":0.39666667580604553
				},
				"KHR_materials_specular":{
					"specularColorFactor":[
						2.371357614441398,
						2.371357614441398,
						2.371357614441398
					]
				},
				"KHR_materials_ior":{
					"ior":1.4500000476837158
				}
			},
			"name":"white",
			"pbrMetallicRoughness":{
				"metallicFactor":0,
				"roughnessFactor":0.36666667461395264
			}
		}
	],
	"meshes":[
		{
			"name":"Mball.016",
			"primitives":[
				{
					"attributes":{
						"POSITION":0,
						"NORMAL":1
					},
					"indices":2,
					"material":0
				}
			]
		}
	],
	"accessors":[
		{
			"bufferView":0,
			"componentType":5126,
			"count":5248,
			"max":[
				2.1308493614196777,
				1.6972293853759766,
				1.5772039890289307
			],
			"min":[
				-2.069810390472412,
				-1.2345691919326782,
				-1.4511985778808594
			],
			"type":"VEC3"
		},
		{
			"bufferView":1,
			"componentType":5126,
			"count":5248,
			"type":"VEC3"
		},
		{
			"bufferView":2,
			"componentType":5123,
			"count":31476,
			"type":"SCALAR"
		}
	],
	"bufferViews":[
		{
			"buffer":0,
			"byteLength":62976,
			"byteOffset":0,
			"target":34962
		},
		{
			"buffer":0,
			"byteLength":62976,
			"byteOffset":62976,
			"target":34962
		},
		{
			"buffer":0,
			"byteLength":62952,
			"byteOffset":125952,
			"target":34963
		}
	],
	"buffers":[
		{
			"byteLength":188904,
			"uri":"data:application/octet-stream;base64,"
		}
	]
}
