{
	"asset":{
		"generator":"Khronos glTF Blender I/O v3.5.30",
		"version":"2.0"
	},
	"extensionsUsed":[
		"KHR_materials_clearcoat",
		"KHR_materials_specular",
		"KHR_materials_ior"
	],
	"scene":0,
	"scenes":[
		{
			"name":"Scene",
			"nodes":[
				0
			]
		}
	],
	"nodes":[
		{
			"mesh":0,
			"name":"cloud1",
			"rotation":[
				0,
				-0.19143962860107422,
				0,
				0.981504499912262
			],
			"translation":[
				-15.995304107666016,
				0.3125802278518677,
				-0.12086524069309235
			]
		}
	],
	"materials":[
		{
			"doubleSided":true,
			"extensions":{
				"KHR_materials_clearcoat":{
					"clearcoatFactor":0.7250000238418579,
					"clearcoatRoughnessFactor":0.39666667580604553
				},
				"KHR_materials_specular":{
					"specularColorFactor":[
						2.371357614441398,
						2.371357614441398,
						2.371357614441398
					]
				},
				"KHR_materials_ior":{
					"ior":1.4500000476837158
				}
			},
			"name":"white",
			"pbrMetallicRoughness":{
				"metallicFactor":0,
				"roughnessFactor":0.36666667461395264
			}
		}
	],
	"meshes":[
		{
			"name":"Mball",
			"primitives":[
				{
					"attributes":{
						"POSITION":0,
						"NORMAL":1
					},
					"indices":2,
					"material":0
				}
			]
		}
	],
	"accessors":[
		{
			"bufferView":0,
			"componentType":5126,
			"count":8188,
			"max":[
				1.2455412149429321,
				1.0940330028533936,
				1.4155054092407227
			],
			"min":[
				-1.1755565404891968,
				-0.8237695693969727,
				-1.4920754432678223
			],
			"type":"VEC3"
		},
		{
			"bufferView":1,
			"componentType":5126,
			"count":8188,
			"type":"VEC3"
		},
		{
			"bufferView":2,
			"componentType":5123,
			"count":49116,
			"type":"SCALAR"
		}
	],
	"bufferViews":[
		{
			"buffer":0,
			"byteLength":98256,
			"byteOffset":0,
			"target":34962
		},
		{
			"buffer":0,
			"byteLength":98256,
			"byteOffset":98256,
			"target":34962
		},
		{
			"buffer":0,
			"byteLength":98232,
			"byteOffset":196512,
			"target":34963
		}
	],
	"buffers":[
		{
			"byteLength":294744,
			"uri":"data:application/octet-stream;base64,"
		}
	]
}
