{
	"asset":{
		"generator":"Khronos glTF Blender I/O v3.5.30",
		"version":"2.0"
	},
	"scene":0,
	"scenes":[
		{
			"name":"Scene",
			"nodes":[
				0
			]
		}
	],
	"nodes":[
		{
			"mesh":0,
			"name":"Plane"
		}
	],
	"materials":[
		{
			"name":"White",
			"pbrMetallicRoughness":{
				"metallicFactor":0
			}
		}
	],
	"meshes":[
		{
			"name":"Plane-Mesh",
			"primitives":[
				{
					"attributes":{
						"POSITION":0,
						"TEXCOORD_0":1,
						"NORMAL":2
					},
					"indices":3,
					"material":0
				}
			]
		}
	],
	"accessors":[
		{
			"bufferView":0,
			"componentType":5126,
			"count":12,
			"max":[
				0.6256850361824036,
				0.1902202069759369,
				0.6980239748954773
			],
			"min":[
				-0.6314664483070374,
				-0.21328499913215637,
				-1.3259721994400024
			],
			"type":"VEC3"
		},
		{
			"bufferView":1,
			"componentType":5126,
			"count":12,
			"type":"VEC2"
		},
		{
			"bufferView":2,
			"componentType":5126,
			"count":12,
			"type":"VEC3"
		},
		{
			"bufferView":3,
			"componentType":5123,
			"count":12,
			"type":"SCALAR"
		}
	],
	"bufferViews":[
		{
			"buffer":0,
			"byteLength":144,
			"byteOffset":0,
			"target":34962
		},
		{
			"buffer":0,
			"byteLength":96,
			"byteOffset":144,
			"target":34962
		},
		{
			"buffer":0,
			"byteLength":144,
			"byteOffset":240,
			"target":34962
		},
		{
			"buffer":0,
			"byteLength":24,
			"byteOffset":384,
			"target":34963
		}
	],
	"buffers":[
		{
			"byteLength":408,
			"uri":"data:application/octet-stream;base64,"
		}
	]
}
