<svg xmlns="http://www.w3.org/2000/svg" xmlns:xlink="http://www.w3.org/1999/xlink" width="24" height="24" viewBox="0 0 24 24">
  <defs>
    <clipPath id="clip-Megaphone">
      <rect width="24" height="24"/>
    </clipPath>
  </defs>
  <g id="Megaphone" clip-path="url(#clip-Megaphone)">
    <rect width="24" height="24" fill="#fff"/>
    <g id="Frame" transform="translate(2 2)">
      <g id="Group">
        <path id="Vector" d="M4.065,10.022l-.233.073a1.027,1.027,0,0,1-.4.073,1.329,1.329,0,0,1-1.246-1L.062,1.964A1.464,1.464,0,0,1,.909.159L1.142.068a1.2,1.2,0,0,1,1,.091A1.33,1.33,0,0,1,2.786,1l2.126,7.22A1.449,1.449,0,0,1,4.065,10.022Z" transform="translate(12.147 3.323)" fill="#1f91cb"/>
        <path id="Vector-2" data-name="Vector" d="M0,0H1.246l.266,1.149L.748,1.8,0,.912Z" transform="translate(8.787 13.309)" fill="#1f91cb"/>
        <g id="Group-2" data-name="Group">
          <g id="Group-3" data-name="Group">
            <path id="Vector-3" data-name="Vector" d="M1.545,9.535,0,4.266,6.2,0,8.854,8.988ZM.781,4.576,2.01,8.751l5.93-.438-2.126-7.2Z" transform="translate(6.395 4.175)" fill="#1b4c7e"/>
          </g>
          <path id="Vector-4" data-name="Vector" d="M3.842,3.628,2.247,4.868A1.643,1.643,0,0,1,1.533,4.7,1.511,1.511,0,0,1,.7,3.7L.071,1.6A1.781,1.781,0,0,1,.387,0,.754.754,0,0,0,.852,0,2.367,2.367,0,0,0,.968.383C1.3,1.4,2.048,4.011,3.41,3.792A1.149,1.149,0,0,0,3.842,3.628Z" transform="translate(2.919 9.79)" fill="#1f91cb"/>
          <g id="Group-4" data-name="Group">
            <path id="Vector-5" data-name="Vector" d="M4.074,0,1.217,1.021a1.86,1.86,0,0,0-.831.62,1.792,1.792,0,0,0-.316,1.6l.615,2.1A1.593,1.593,0,0,0,2.231,6.509,1.554,1.554,0,0,0,2.8,6.4L5.653,5.378ZM3.842,5.269l-.449.164-.8.292a1.006,1.006,0,0,1-.8-.036.921.921,0,0,1-.482-.565L.7,3.026a1,1,0,0,1,.1-.784,1.148,1.148,0,0,1,.615-.529l2.226-.8L4.822,4.923Z" transform="translate(2.919 8.149)" fill="#1b4c7e"/>
          </g>
          <g id="Group-5" data-name="Group">
            <g id="Group-6" data-name="Group">
              <path id="Vector-6" data-name="Vector" d="M1.279,4.448l-.2-.693a1.507,1.507,0,0,0,.714-1.9A1.717,1.717,0,0,0,1.13.911,1.014,1.014,0,0,0,.2.783L0,.09a1.66,1.66,0,0,1,1.478.2A2.367,2.367,0,0,1,2.442,1.64,2.3,2.3,0,0,1,1.279,4.448Z" transform="translate(15.199 5.707)" fill="#acbccb"/>
            </g>
          </g>
          <g id="Group-7" data-name="Group">
            <path id="Vector-7" data-name="Vector" d="M4.911,8.217,2.785,1A1.379,1.379,0,0,0,2.137.159a1.2,1.2,0,0,0-1-.091L.908.159a1.48,1.48,0,0,0-.847,1.8l2.126,7.22a1.351,1.351,0,0,0,1.246,1,1.027,1.027,0,0,0,.4-.073l.233-.073A1.478,1.478,0,0,0,4.911,8.217ZM3.864,9.329l-.233.091a.642.642,0,0,1-.814-.456L.692,1.745A.733.733,0,0,1,1.107.852L1.339.76a.767.767,0,0,1,.2-.036.646.646,0,0,1,.615.492L4.28,8.436A.717.717,0,0,1,3.864,9.329Z" transform="translate(12.149 3.323)" fill="#1b4c7e"/>
          </g>
          <g id="Group-8" data-name="Group">
            <path id="Vector-8" data-name="Vector" d="M5.764,7.256,1.528,0l.731,2.5L0,3.3l.365.638L1.013,3.7l.3-.109,1.246-.438,2.625,4.5a.5.5,0,0,1,.05.365.889.889,0,0,1-.415.529A.786.786,0,0,1,3.771,8.4L1.661,4.777,1,5,3.206,8.788a1.281,1.281,0,0,0,1.13.62,1.645,1.645,0,0,0,.8-.219A1.561,1.561,0,0,0,5.9,8.2,1.436,1.436,0,0,0,5.764,7.256Z" transform="translate(5.482 10.593)" fill="#1b4c7e"/>
          </g>
          <g id="Group-9" data-name="Group">
            <path id="Vector-9" data-name="Vector" d="M1.312,2.753,0,.255,2.542,0l.332,1.112a1.07,1.07,0,0,1-.116.839,1.213,1.213,0,0,1-.631.51ZM.98.839l.615,1.039.316-.109a.522.522,0,0,0,.282-.219.23.23,0,0,0,.033-.219L2.06.766Z" transform="translate(7.807 12.799)" fill="#1b4c7e"/>
          </g>
        </g>
        <g id="Group-10" data-name="Group">
          <path id="Vector-10" data-name="Vector" d="M.891,2.582a.23.23,0,0,1-.216-.164L.01.321A.259.259,0,0,1,.143.011.224.224,0,0,1,.425.157l.664,2.1a.259.259,0,0,1-.133.31A.093.093,0,0,1,.891,2.582Z" transform="translate(11.468 6.352)" fill="#1f91cb"/>
          <path id="Vector-11" data-name="Vector" d="M.708,2a.182.182,0,0,1-.166-.128L.01.248A.189.189,0,0,1,.127.011.157.157,0,0,1,.342.121L.874,1.743a.189.189,0,0,1-.116.237A.058.058,0,0,1,.708,2Z" transform="translate(10.937 6.917)" fill="#1f91cb"/>
          <path id="Vector-12" data-name="Vector" d="M.536,1.409A.168.168,0,0,1,.4,1.317L0,.169A.132.132,0,0,1,.087,0,.142.142,0,0,1,.253.078l.4,1.149a.132.132,0,0,1-.083.164C.569,1.409.552,1.409.536,1.409Z" transform="translate(10.394 7.488)" fill="#1f91cb"/>
        </g>
        <path id="Vector-13" data-name="Vector" d="M.327,1.708a.3.3,0,0,1-.216-.091.4.4,0,0,1-.033-.51L.892.122A.316.316,0,0,1,1.357.085.4.4,0,0,1,1.39.6L.576,1.58A.31.31,0,0,1,.327,1.708Z" transform="translate(17.132 3.816)" fill="#acbccb"/>
        <path id="Vector-14" data-name="Vector" d="M.17,1.135a.3.3,0,0,1-.15-.2A.391.391,0,0,1,.22.46L1.35.023a.337.337,0,0,1,.432.219.391.391,0,0,1-.2.474l-1.13.438A.3.3,0,0,1,.17,1.135Z" transform="translate(18.185 6.03)" fill="#acbccb"/>
        <path id="Vector-15" data-name="Vector" d="M1.729.8A.393.393,0,0,0,1.845.567a.349.349,0,0,0-.282-.4L.367,0A.33.33,0,0,0,0,.312a.349.349,0,0,0,.282.4l1.2.164A.232.232,0,0,0,1.729.8Z" transform="translate(18.171 8.658)" fill="#acbccb"/>
      </g>
      <path id="Vector-16" data-name="Vector" d="M1.242,2.755a1.154,1.154,0,0,1-.88-.4A1.5,1.5,0,0,1,.361.4,1.181,1.181,0,0,1,2.139.4a1.5,1.5,0,0,1,0,1.951A1.24,1.24,0,0,1,1.242,2.755Zm0-1.8a.372.372,0,0,0-.282.128.484.484,0,0,0,0,.62.385.385,0,0,0,.565,0,.484.484,0,0,0,0-.62A.372.372,0,0,0,1.242.95Z" transform="translate(17.363 14.036)" fill="#acbccb"/>
      <path id="Vector-17" data-name="Vector" d="M1.242,2.755a1.154,1.154,0,0,1-.88-.4A1.5,1.5,0,0,1,.361.4,1.181,1.181,0,0,1,2.139.4a1.5,1.5,0,0,1,0,1.951A1.315,1.315,0,0,1,1.242,2.755Zm0-1.823a.372.372,0,0,0-.282.128.484.484,0,0,0,0,.62.385.385,0,0,0,.565,0,.484.484,0,0,0,0-.62A.45.45,0,0,0,1.242.932Z" transform="translate(0.021 13.744)" fill="#acbccb"/>
      <path id="Vector-18" data-name="Vector" d="M1.86.784H1.578V.474A.463.463,0,0,0,1.146,0,.463.463,0,0,0,.714.474v.31H.432A.463.463,0,0,0,0,1.258a.463.463,0,0,0,.432.474H.714v.31a.463.463,0,0,0,.432.474.463.463,0,0,0,.432-.474v-.31H1.86a.463.463,0,0,0,.432-.474A.463.463,0,0,0,1.86.784Z" transform="translate(11.429 15.861)" fill="#acbccb"/>
      <path id="Vector-19" data-name="Vector" d="M1.828.785H1.579V.494A.512.512,0,0,0,1.28.02.445.445,0,0,0,.715.476v.31H.466A.486.486,0,0,0,0,1.241a.447.447,0,0,0,.432.492H.715v.273a.512.512,0,0,0,.3.474.445.445,0,0,0,.565-.456V1.734h.282a.447.447,0,0,0,.432-.492A.472.472,0,0,0,1.828.785Z" transform="translate(11.095 -0.002)" fill="#acbccb"/>
    </g>
  </g>
</svg>
